<?xml version="1.0" encoding="UTF-8"?>
<!DOCTYPE svg PUBLIC "-//W3C//DTD SVG 1.1//EN" "http://www.w3.org/Graphics/SVG/1.1/DTD/svg11.dtd">
<!-- Creator: CorelDRAW 2019 (64-Bit) -->
<svg xmlns="http://www.w3.org/2000/svg" xml:space="preserve" width="161px" height="29px" version="1.1" shape-rendering="geometricPrecision" text-rendering="geometricPrecision" image-rendering="optimizeQuality" fill-rule="evenodd" clip-rule="evenodd"
viewBox="0 0 8.433 1.525"
 xmlns:xlink="http://www.w3.org/1999/xlink">
 <g id="Слой_x0020_1">
  <metadata id="CorelCorpID_0Corel-Layer"/>
  <path fill="#A2B9BC" d="M3.844 0.146c0.02,-0.005 0.049,-0.019 0.086,-0.034 0.098,-0.04 0.257,-0.092 0.485,-0.038 0.389,0.092 0.595,0.466 0.205,0.742 -0.174,0.123 -0.332,0.146 -0.544,0.137 0.001,-0.021 0.006,-0.022 0.007,-0.046 0.11,-0.049 0.236,-0.133 0.284,-0.245 0.003,-0.009 0.004,-0.023 -0.011,-0.014 -0.103,0.074 -0.136,0.098 -0.254,0.151 0.016,-0.131 0.051,-0.289 0.053,-0.419 0.001,-0.007 -0.009,-0.017 -0.02,0 -0.017,0.026 -0.065,0.144 -0.096,0.239 -0.071,-0.039 -0.075,-0.104 -0.133,-0.144 -0.009,-0.008 -0.01,0.003 -0.01,0.005 0.002,0.081 0.054,0.178 0.116,0.221l-0.065 0.228c-0.031,-0.004 -0.088,-0.029 -0.109,-0.042 -0.128,-0.078 -0.067,-0.125 -0.15,-0.146 -0.058,-0.014 -0.162,0.033 -0.065,0.14 0.097,0.108 0.163,0.123 0.295,0.165l-0.078 0.362c-0.005,0.027 -0.004,0.041 0.009,0.057 0.036,0.044 0.124,0.036 0.153,-0.013 0.018,-0.032 0.007,-0.082 0.015,-0.132l0.028 -0.19c0.002,-0.017 0.01,-0.046 0.011,-0.064 0.149,0.006 0.247,-0.004 0.359,-0.034 0.337,-0.09 0.689,-0.45 0.439,-0.772 -0.21,-0.27 -0.745,-0.358 -1.018,-0.128 -0.007,0.005 0.002,0.018 0.008,0.014zm0.28 1.028c-0.005,0.111 0.543,0.39 0.72,0.346 0.006,-0.002 0.013,-0.009 0.004,-0.011 -0.237,-0.063 -0.42,-0.187 -0.59,-0.351 -0.074,-0.071 -0.133,-0.016 -0.134,0.016z"/>
  <path fill="#6B5B95" fill-rule="nonzero" d="M0.297 0.657c0,-0.033 -0.011,-0.056 -0.034,-0.071 -0.023,-0.014 -0.058,-0.022 -0.106,-0.022l-0.055 0 0 0.205 0.05 0c0.047,0 0.083,-0.01 0.108,-0.03 0.025,-0.019 0.037,-0.047 0.037,-0.082zm0.159 0.491l-0.121 0 -0.186 -0.296 -0.047 0 0 0.296 -0.102 0 0 -0.671 0.152 0c0.036,0 0.069,0.003 0.1,0.009 0.03,0.006 0.057,0.015 0.08,0.029 0.022,0.014 0.04,0.032 0.053,0.054 0.013,0.022 0.02,0.051 0.02,0.085 0,0.024 -0.005,0.047 -0.014,0.067 -0.008,0.021 -0.02,0.039 -0.034,0.054 -0.015,0.015 -0.031,0.028 -0.05,0.038 -0.019,0.01 -0.038,0.018 -0.058,0.022l0.207 0.313z"/>
  <polygon id="1" fill="#6B5B95" fill-rule="nonzero" points="1.094,1.148 0.758,1.148 0.758,0.477 1.093,0.477 1.093,0.564 0.859,0.564 0.859,0.768 1.094,0.768 1.094,0.854 0.859,0.854 0.859,1.062 1.094,1.062 "/>
  <polygon id="2" fill="#6B5B95" fill-rule="nonzero" points="1.549,1.148 1.447,1.148 1.447,0.477 1.549,0.477 "/>
  <path id="3" fill="#6B5B95" fill-rule="nonzero" d="M2 0.82c0,0.038 0.006,0.072 0.017,0.103 0.011,0.031 0.026,0.057 0.046,0.08 0.02,0.022 0.044,0.039 0.071,0.051 0.028,0.012 0.059,0.018 0.093,0.018 0.031,0 0.062,-0.004 0.093,-0.012 0.031,-0.009 0.061,-0.02 0.089,-0.036l0 0.092c-0.026,0.014 -0.055,0.024 -0.087,0.031 -0.032,0.007 -0.067,0.011 -0.105,0.011 -0.048,0 -0.091,-0.008 -0.131,-0.025 -0.039,-0.016 -0.073,-0.04 -0.102,-0.069 -0.028,-0.03 -0.051,-0.066 -0.066,-0.107 -0.016,-0.041 -0.024,-0.087 -0.024,-0.137 0,-0.051 0.009,-0.098 0.026,-0.141 0.016,-0.043 0.04,-0.08 0.07,-0.111 0.03,-0.031 0.065,-0.056 0.106,-0.073 0.041,-0.018 0.086,-0.026 0.134,-0.026 0.016,0 0.032,0.001 0.049,0.003 0.017,0.002 0.033,0.004 0.049,0.007 0.016,0.004 0.031,0.007 0.045,0.012 0.015,0.004 0.028,0.009 0.039,0.014l0 0.091c-0.012,-0.005 -0.025,-0.01 -0.04,-0.015 -0.015,-0.006 -0.03,-0.01 -0.046,-0.014 -0.016,-0.004 -0.032,-0.007 -0.049,-0.01 -0.016,-0.002 -0.033,-0.003 -0.048,-0.003 -0.033,0 -0.063,0.006 -0.091,0.019 -0.027,0.012 -0.051,0.03 -0.072,0.053 -0.02,0.023 -0.036,0.051 -0.048,0.084 -0.012,0.033 -0.018,0.07 -0.018,0.11z"/>
  <polygon id="4" fill="#6B5B95" fill-rule="nonzero" points="3.321,1.148 3.219,1.148 3.219,0.85 2.854,0.85 2.854,1.148 2.752,1.148 2.752,0.477 2.854,0.477 2.854,0.764 3.219,0.764 3.219,0.477 3.321,0.477 "/>
  <path id="5" fill="#6B5B95" fill-rule="nonzero" d="M5.522 0.65c0,-0.012 -0.002,-0.024 -0.006,-0.035 -0.005,-0.012 -0.011,-0.021 -0.021,-0.03 -0.009,-0.009 -0.022,-0.016 -0.037,-0.021 -0.015,-0.005 -0.033,-0.007 -0.055,-0.007 -0.013,0 -0.025,0 -0.035,0 -0.01,0.001 -0.019,0.001 -0.027,0.002l0 0.204 0.043 0c0.045,0 0.079,-0.01 0.103,-0.029 0.023,-0.019 0.035,-0.047 0.035,-0.084zm0.036 0.301c0,-0.036 -0.012,-0.063 -0.037,-0.08 -0.024,-0.018 -0.061,-0.026 -0.109,-0.026l-0.071 0 0 0.222c0.011,0.001 0.023,0.002 0.036,0.002 0.013,0.001 0.028,0.001 0.044,0.001 0.043,0 0.076,-0.011 0.101,-0.031 0.024,-0.022 0.036,-0.051 0.036,-0.088zm0.104 -0.003c0,0.03 -0.005,0.057 -0.015,0.082 -0.01,0.025 -0.025,0.047 -0.046,0.065 -0.021,0.018 -0.048,0.032 -0.08,0.042 -0.032,0.01 -0.071,0.015 -0.116,0.015 -0.011,0 -0.024,-0.001 -0.039,-0.001 -0.015,-0.001 -0.031,-0.001 -0.046,-0.002 -0.015,-0.001 -0.03,-0.002 -0.044,-0.004 -0.015,-0.001 -0.027,-0.002 -0.037,-0.004l0 -0.661c0.021,-0.001 0.045,-0.003 0.074,-0.004 0.029,-0.001 0.059,-0.001 0.089,-0.001 0.035,0 0.067,0.004 0.095,0.011 0.027,0.008 0.051,0.018 0.07,0.033 0.019,0.014 0.034,0.031 0.044,0.052 0.01,0.021 0.015,0.045 0.015,0.072 0,0.017 -0.003,0.034 -0.007,0.049 -0.005,0.016 -0.012,0.03 -0.02,0.042 -0.009,0.013 -0.019,0.025 -0.031,0.035 -0.011,0.01 -0.024,0.018 -0.038,0.025 0.018,0.004 0.036,0.011 0.052,0.02 0.016,0.008 0.03,0.019 0.042,0.032 0.012,0.013 0.021,0.028 0.028,0.045 0.007,0.017 0.01,0.036 0.01,0.057z"/>
  <path id="6" fill="#6B5B95" fill-rule="nonzero" d="M6.52 1.148l-0.109 0 -0.075 -0.192 -0.259 0 -0.07 0.192 -0.109 0 0.26 -0.671 0.099 0 0.263 0.671zm-0.3 -0.509c-0.002,-0.005 -0.004,-0.012 -0.007,-0.021 -0.003,-0.009 -0.005,-0.019 -0.006,-0.029l-0.002 0c-0.002,0.011 -0.004,0.02 -0.007,0.03 -0.002,0.009 -0.005,0.016 -0.007,0.023l-0.081 0.225 0.195 0 -0.085 -0.228z"/>
  <path id="7" fill="#6B5B95" fill-rule="nonzero" d="M7.083 1.074c0.025,0 0.048,-0.004 0.069,-0.012 0.021,-0.007 0.038,-0.019 0.053,-0.034 0.015,-0.016 0.026,-0.035 0.034,-0.058 0.009,-0.024 0.013,-0.051 0.013,-0.082l0 -0.411 0.1 0 0 0.398c0,0.048 -0.006,0.089 -0.019,0.125 -0.013,0.036 -0.031,0.065 -0.055,0.089 -0.024,0.024 -0.054,0.041 -0.088,0.053 -0.035,0.012 -0.074,0.018 -0.117,0.018 -0.041,0 -0.078,-0.006 -0.111,-0.017 -0.033,-0.012 -0.061,-0.029 -0.085,-0.052 -0.023,-0.023 -0.041,-0.052 -0.054,-0.086 -0.012,-0.034 -0.019,-0.074 -0.019,-0.119l0 -0.409 0.102 0 0 0.405c0,0.032 0.004,0.059 0.013,0.083 0.008,0.024 0.02,0.044 0.035,0.061 0.016,0.016 0.034,0.028 0.056,0.036 0.022,0.008 0.046,0.012 0.073,0.012z"/>
  <path id="8" fill="#6B5B95" fill-rule="nonzero" d="M8.433 1.148l-0.095 0 -0.021 -0.438c0,-0.005 -0.001,-0.01 -0.001,-0.018 0,-0.007 0,-0.014 0,-0.023 0,-0.008 -0.001,-0.016 -0.001,-0.024 0,-0.008 0,-0.014 0,-0.019 -0.002,0.008 -0.005,0.016 -0.007,0.025 -0.003,0.009 -0.005,0.017 -0.008,0.025 -0.002,0.007 -0.004,0.014 -0.006,0.02 -0.002,0.006 -0.003,0.011 -0.005,0.014l-0.169 0.438 -0.091 0 -0.172 -0.438c-0.001,-0.004 -0.003,-0.009 -0.005,-0.015 -0.002,-0.006 -0.005,-0.013 -0.007,-0.02 -0.003,-0.008 -0.005,-0.016 -0.008,-0.025 -0.002,-0.008 -0.004,-0.016 -0.006,-0.024 0,0.005 0,0.012 0,0.02 -0.001,0.008 -0.001,0.016 -0.001,0.024 -0.001,0.008 -0.001,0.016 -0.001,0.024 -0.001,0.008 -0.001,0.015 -0.001,0.021l-0.028 0.433 -0.095 0 0.047 -0.671 0.109 0 0.194 0.495c0.001,0.005 0.003,0.011 0.005,0.017 0.002,0.006 0.004,0.013 0.006,0.02 0.002,0.007 0.003,0.014 0.005,0.021 0.002,0.007 0.003,0.013 0.004,0.018 0.001,-0.005 0.002,-0.012 0.004,-0.019 0.002,-0.007 0.004,-0.014 0.006,-0.022 0.001,-0.007 0.003,-0.014 0.006,-0.02 0.001,-0.007 0.003,-0.013 0.005,-0.017l0.192 -0.493 0.114 0 0.031 0.671z"/>
 </g>
</svg>
